# Blender v2.80 (sub 74) OBJ File: 'Bed01.blend'
# www.blender.org
o BedObj_Cube.002
v 2.800000 0.000000 -2.000000
v -2.800000 0.000000 -2.000000
v 0.000000 0.000000 -2.000000
v 2.800000 0.000000 2.000000
v 2.800000 0.000000 0.000000
v -2.800000 0.000000 2.000000
v 0.000000 0.000000 0.000000
v 0.000000 0.000000 2.000000
v -2.800000 0.000000 0.000000
v 2.800000 0.300000 -2.000000
v 2.800000 0.600000 -2.000000
v 0.000000 0.300000 -2.000000
v -2.800000 0.300000 -2.000000
v -2.800000 0.600000 -2.000000
v 0.000000 0.600000 -2.000000
v 2.800000 0.300000 2.000000
v 2.800000 0.600000 2.000000
v 2.800000 0.600000 0.000000
v 2.800000 0.300000 0.000000
v 0.000000 0.300000 2.000000
v -2.800000 0.300000 2.000000
v -2.800000 0.600000 2.000000
v 0.000000 0.600000 0.000000
v 0.000000 0.600000 2.000000
v -2.800000 0.600000 0.000000
v -2.800000 0.300000 0.000000
v 3.000000 -1.000000 -2.000000
v 3.000000 1.300000 -2.000000
v 2.800000 -1.000000 -2.000000
v 2.800000 1.300000 -2.000000
v 2.900000 -1.000000 -2.000000
v 2.900000 1.300000 -2.000000
v 3.000000 1.300000 -1.900000
v 3.000000 -1.000000 -1.900000
v 3.000000 -1.000000 -1.800000
v 3.000000 1.300000 -1.800000
v 2.900000 -1.000000 -1.900000
v 2.900000 1.300000 -1.900000
v 2.800000 1.300000 -1.900000
v 2.800000 -1.000000 -1.900000
v 2.800000 -1.000000 -1.800000
v 2.800000 1.300000 -1.800000
v 2.900000 -1.000000 -1.800000
v 2.900000 1.300000 -1.800000
v 3.000000 -1.000000 2.000000
v 3.000000 1.300000 2.000000
v 2.800000 -1.000000 2.000000
v 2.800000 1.300000 2.000000
v 2.900000 -1.000000 2.000000
v 2.900000 1.300000 2.000000
v 3.000000 1.300000 1.900000
v 3.000000 -1.000000 1.900000
v 3.000000 -1.000000 1.800000
v 3.000000 1.300000 1.800000
v 2.900000 -1.000000 1.900000
v 2.900000 1.300000 1.900000
v 2.800000 1.300000 1.900000
v 2.800000 -1.000000 1.900000
v 2.800000 -1.000000 1.800000
v 2.800000 1.300000 1.800000
v 2.900000 -1.000000 1.800000
v 2.900000 1.300000 1.800000
v -2.800000 -1.000000 2.000000
v -2.800000 1.300000 2.000000
v -3.000000 -1.000000 2.000000
v -3.000000 1.300000 2.000000
v -2.900000 -1.000000 2.000000
v -2.900000 1.300000 2.000000
v -2.800000 1.300000 1.900000
v -2.800000 -1.000000 1.900000
v -2.800000 -1.000000 1.800000
v -2.800000 1.300000 1.800000
v -2.900000 -1.000000 1.900000
v -3.000000 1.300000 1.900000
v -3.000000 -1.000000 1.900000
v -3.000000 -1.000000 1.800000
v -3.000000 1.300000 1.800000
v -2.900000 -1.000000 1.800000
v -2.900000 1.300000 1.800000
v -2.800000 1.099999 1.900000
v -2.800000 1.099999 2.000000
v -2.900000 1.099999 2.000000
v -3.000000 1.099999 1.900000
v -3.000000 1.099999 2.000000
v -2.800000 1.099999 1.800000
v -2.900000 1.099999 1.800000
v -3.000000 1.099999 1.800000
v -2.800000 0.700001 1.900000
v -2.800000 0.700001 2.000000
v -2.900000 0.700001 2.000000
v -3.000000 0.700001 1.900000
v -3.000000 0.700001 2.000000
v -2.800000 0.700001 1.800000
v -2.900000 0.700001 1.800000
v -3.000000 0.700001 1.800000
v -2.800000 0.900000 1.900000
v -2.800000 0.900000 2.000000
v -2.900000 0.900000 2.000000
v -3.000000 0.900000 1.900000
v -3.000000 0.900000 2.000000
v -2.800000 0.900000 1.800000
v -2.900000 0.900000 1.800000
v -3.000000 0.900000 1.800000
v -2.800000 1.500000 2.000000
v -3.000000 1.500000 2.000000
v -2.900000 1.500000 2.000000
v -2.800000 1.500000 1.900000
v -2.800000 1.500000 1.800000
v -2.900000 1.500000 1.900000
v -3.000000 1.500000 1.900000
v -3.000000 1.500000 1.800000
v -2.900000 1.500000 1.800000
v -2.800000 -1.000000 -2.000000
v -2.800000 1.300000 -2.000000
v -3.000000 -1.000000 -2.000000
v -3.000000 1.300000 -2.000000
v -2.900000 -1.000000 -2.000000
v -2.900000 1.300000 -2.000000
v -2.800000 1.300000 -1.900000
v -2.800000 -1.000000 -1.900000
v -2.800000 -1.000000 -1.800000
v -2.800000 1.300000 -1.800000
v -2.900000 -1.000000 -1.900000
v -3.000000 1.300000 -1.900000
v -3.000000 -1.000000 -1.900000
v -3.000000 -1.000000 -1.800000
v -3.000000 1.300000 -1.800000
v -2.900000 -1.000000 -1.800000
v -2.900000 1.300000 -1.800000
v -2.800000 1.099999 -1.900000
v -2.800000 1.099999 -2.000000
v -2.900000 1.099999 -2.000000
v -3.000000 1.099999 -1.900000
v -3.000000 1.099999 -2.000000
v -2.800000 1.099999 -1.800000
v -2.900000 1.099999 -1.800000
v -3.000000 1.099999 -1.800000
v -2.800000 0.700001 -1.900000
v -2.800000 0.700001 -2.000000
v -2.900000 0.700001 -2.000000
v -3.000000 0.700001 -1.900000
v -3.000000 0.700001 -2.000000
v -2.800000 0.700001 -1.800000
v -2.900000 0.700001 -1.800000
v -3.000000 0.700001 -1.800000
v -2.800000 0.900000 -1.900000
v -2.800000 0.900000 -2.000000
v -2.900000 0.900000 -2.000000
v -3.000000 0.900000 -1.900000
v -3.000000 0.900000 -2.000000
v -2.800000 0.900000 -1.800000
v -2.900000 0.900000 -1.800000
v -3.000000 0.900000 -1.800000
v -2.800000 0.700001 0.000000
v -2.900000 0.700001 0.000000
v -3.000000 0.700001 0.000000
v -2.800000 0.900000 0.000000
v -2.900000 0.900000 0.000000
v -3.000000 0.900000 0.000000
v -2.800000 1.300000 0.000000
v -3.000000 1.300000 0.000000
v -2.900000 1.300000 0.000000
v -2.800000 1.099999 0.000000
v -2.900000 1.099999 0.000000
v -3.000000 1.099999 0.000000
v -2.800000 1.500000 -2.000000
v -3.000000 1.500000 -2.000000
v -2.900000 1.500000 -2.000000
v -2.800000 1.500000 -1.900000
v -2.800000 1.500000 -1.800000
v -2.900000 1.500000 -1.900000
v -3.000000 1.500000 -1.900000
v -3.000000 1.500000 -1.800000
v -2.900000 1.500000 -1.800000
vt 0.500000 0.375000
vt 0.375000 0.500000
vt 0.375000 0.375000
vt 0.250000 0.625000
vt 0.250000 0.500000
vt 0.500000 0.500000
vt 0.375000 0.625000
vt 0.375000 0.500000
vt 0.375000 0.625000
vt 0.500000 0.500000
vt 0.375000 0.500000
vt 0.500000 0.375000
vt 0.375000 0.375000
vt 0.250000 0.500000
vt 0.500000 0.500000
vt 0.375000 0.500000
vt 0.500000 0.500000
vt 0.375000 0.500000
vt 0.375000 0.375000
vt 0.250000 0.625000
vt 0.250000 0.500000
vt 0.375000 0.625000
vt 0.375000 0.500000
vt 0.375000 0.625000
vt 0.375000 0.500000
vt 0.375000 0.375000
vt 0.250000 0.500000
vt 0.375000 0.500000
vt 0.625000 0.375000
vt 0.375000 0.500000
vt 0.375000 0.375000
vt 0.625000 0.500000
vt 0.375000 0.625000
vt 0.250000 0.625000
vt 0.250000 0.500000
vt 0.750000 0.500000
vt 0.625000 0.625000
vt 0.375000 0.500000
vt 0.375000 0.625000
vt 0.625000 0.500000
vt 0.625000 0.625000
vt 0.375000 0.500000
vt 0.625000 0.375000
vt 0.375000 0.375000
vt 0.625000 0.500000
vt 0.250000 0.500000
vt 0.750000 0.500000
vt 0.375000 0.500000
vt 0.625000 0.500000
vt 0.375000 0.500000
vt 0.625000 0.375000
vt 0.375000 0.375000
vt 0.375000 0.625000
vt 0.625000 0.500000
vt 0.250000 0.625000
vt 0.250000 0.500000
vt 0.625000 0.625000
vt 0.750000 0.500000
vt 0.375000 0.500000
vt 0.625000 0.500000
vt 0.375000 0.625000
vt 0.625000 0.625000
vt 0.625000 0.375000
vt 0.375000 0.500000
vt 0.375000 0.375000
vt 0.625000 0.500000
vt 0.250000 0.500000
vt 0.750000 0.500000
vt 0.375000 0.500000
vt 0.625000 0.500000
vt 0.603750 0.500000
vt 0.625000 0.375000
vt 0.603750 0.375000
vt 0.603750 0.625000
vt 0.625000 0.500000
vt 0.250000 0.625000
vt 0.375000 0.500000
vt 0.250000 0.500000
vt 0.625000 0.625000
vt 0.625000 0.500000
vt 0.603750 0.500000
vt 0.625000 0.500000
vt 0.603750 0.625000
vt 0.375000 0.500000
vt 0.750000 0.500000
vt 0.625000 0.500000
vt 0.625000 0.500000
vt 0.750000 0.500000
vt 0.603750 0.500000
vt 0.375000 0.500000
vt 0.250000 0.500000
vt 0.625000 0.625000
vt 0.625000 0.500000
vt 0.625000 0.500000
vt 0.625000 0.500000
vt 0.603750 0.500000
vt 0.375000 0.500000
vt 0.625000 0.375000
vt 0.582019 0.625000
vt 0.582019 0.500000
vt 0.603750 0.375000
vt 0.582019 0.375000
vt 0.582019 0.625000
vt 0.582019 0.500000
vt 0.582019 0.500000
vt 0.582019 0.375000
vt 0.582019 0.500000
vt 0.560287 0.375000
vt 0.375000 0.375000
vt 0.375000 0.625000
vt 0.560287 0.500000
vt 0.560287 0.500000
vt 0.375000 0.625000
vt 0.560287 0.375000
vt 0.375000 0.375000
vt 0.560287 0.500000
vt 0.560287 0.500000
vt 0.560287 0.625000
vt 0.560287 0.625000
vt 0.582019 0.500000
vt 0.560287 0.500000
vt 0.560287 0.375000
vt 0.560287 0.500000
vt 0.582019 0.500000
vt 0.582019 0.375000
vt 0.625000 0.500000
vt 0.603750 0.500000
vt 0.603750 0.375000
vt 0.603750 0.500000
vt 0.625000 0.625000
vt 0.750000 0.500000
vt 0.625000 0.625000
vt 0.625000 0.500000
vt 0.750000 0.500000
vt 0.625000 0.375000
vt 0.603750 0.500000
vt 0.603750 0.375000
vt 0.625000 0.500000
vt 0.603750 0.625000
vt 0.375000 0.500000
vt 0.250000 0.625000
vt 0.250000 0.500000
vt 0.625000 0.500000
vt 0.625000 0.625000
vt 0.603750 0.500000
vt 0.603750 0.625000
vt 0.625000 0.500000
vt 0.375000 0.500000
vt 0.625000 0.500000
vt 0.750000 0.500000
vt 0.625000 0.500000
vt 0.603750 0.500000
vt 0.375000 0.500000
vt 0.250000 0.500000
vt 0.625000 0.500000
vt 0.625000 0.625000
vt 0.625000 0.500000
vt 0.603750 0.500000
vt 0.375000 0.500000
vt 0.625000 0.375000
vt 0.582019 0.625000
vt 0.582019 0.500000
vt 0.603750 0.375000
vt 0.582019 0.375000
vt 0.582019 0.625000
vt 0.582019 0.500000
vt 0.582019 0.500000
vt 0.582019 0.375000
vt 0.582019 0.500000
vt 0.560287 0.375000
vt 0.375000 0.375000
vt 0.560287 0.500000
vt 0.375000 0.625000
vt 0.375000 0.625000
vt 0.560287 0.500000
vt 0.560287 0.375000
vt 0.375000 0.375000
vt 0.560287 0.500000
vt 0.560287 0.500000
vt 0.560287 0.625000
vt 0.560287 0.625000
vt 0.625000 0.375000
vt 0.750000 0.500000
vt 0.625000 0.625000
vt 0.625000 0.625000
vt 0.625000 0.500000
vt 0.750000 0.500000
vt 0.500000 0.625000
vt 0.500000 0.625000
vt 0.750000 0.625000
vt 0.750000 0.625000
vt 0.750000 0.625000
vt 0.750000 0.625000
vn 0.0000 0.0000 -1.0000
vn 0.0000 -1.0000 0.0000
vn 1.0000 0.0000 0.0000
vn -1.0000 0.0000 0.0000
vn 0.0000 0.0000 1.0000
vn 0.0000 1.0000 0.0000
s off
f 12/1/1 1/2/1 3/3/1
f 1/2/2 7/4/2 3/5/2
f 10/6/3 5/7/3 1/2/3
f 2/8/1 12/1/1 3/3/1
f 7/4/2 2/8/2 3/5/2
f 9/9/4 13/10/4 2/8/4
f 4/11/5 20/12/5 8/13/5
f 7/4/2 4/11/2 8/14/2
f 5/7/3 16/15/3 4/11/3
f 20/12/5 6/16/5 8/13/5
f 6/16/2 7/4/2 8/14/2
f 21/17/4 9/9/4 6/16/4
f 11/18/1 12/1/1 15/19/1
f 23/20/6 11/18/6 15/21/6
f 18/22/3 10/6/3 11/18/3
f 12/1/1 14/23/1 15/19/1
f 14/23/6 23/20/6 15/21/6
f 13/10/4 25/24/4 14/23/4
f 20/12/5 17/25/5 24/26/5
f 17/25/6 23/20/6 24/27/6
f 16/15/3 18/22/3 17/25/3
f 22/28/5 20/12/5 24/26/5
f 23/20/6 22/28/6 24/27/6
f 25/24/4 21/17/4 22/28/4
f 32/29/1 27/30/1 31/31/1
f 28/32/3 34/33/3 27/30/3
f 27/30/2 37/34/2 31/35/2
f 32/36/6 33/37/6 28/32/6
f 29/38/1 32/29/1 31/31/1
f 40/39/4 30/40/4 29/38/4
f 37/34/2 29/38/2 31/35/2
f 39/41/6 32/36/6 30/40/6
f 35/42/5 44/43/5 43/44/5
f 34/33/3 36/45/3 35/42/3
f 37/34/2 35/42/2 43/46/2
f 33/37/6 44/47/6 36/45/6
f 44/43/5 41/48/5 43/44/5
f 42/49/4 40/39/4 41/48/4
f 41/48/2 37/34/2 43/46/2
f 44/47/6 39/41/6 42/49/6
f 45/50/5 50/51/5 49/52/5
f 52/53/3 46/54/3 45/50/3
f 55/55/2 45/50/2 49/56/2
f 51/57/6 50/58/6 46/54/6
f 50/51/5 47/59/5 49/52/5
f 48/60/4 58/61/4 47/59/4
f 47/59/2 55/55/2 49/56/2
f 50/58/6 57/62/6 48/60/6
f 62/63/1 53/64/1 61/65/1
f 54/66/3 52/53/3 53/64/3
f 53/64/2 55/55/2 61/67/2
f 62/68/6 51/57/6 54/66/6
f 59/69/1 62/63/1 61/65/1
f 58/61/4 60/70/4 59/69/4
f 55/55/2 59/69/2 61/67/2
f 57/62/6 62/68/6 60/70/6
f 81/71/5 68/72/5 82/73/5
f 80/74/3 64/75/3 81/71/3
f 73/76/2 63/77/2 67/78/2
f 69/79/3 104/80/3 64/75/3
f 68/72/5 84/81/5 82/73/5
f 66/82/4 83/83/4 84/81/4
f 65/84/2 73/76/2 67/78/2
f 79/85/1 108/86/1 72/87/1
f 72/87/6 162/88/6 79/85/6
f 72/87/3 80/74/3 85/89/3
f 71/90/2 73/76/2 78/91/2
f 74/92/4 111/93/4 77/94/4
f 85/89/3 160/95/3 72/87/3
f 83/83/4 77/94/4 87/96/4
f 73/76/2 76/97/2 78/91/2
f 64/75/5 106/98/5 68/72/5
f 99/99/4 87/96/4 103/100/4
f 103/100/1 86/101/1 102/102/1
f 85/89/3 96/103/3 101/104/3
f 86/101/1 101/104/1 102/102/1
f 84/81/4 99/99/4 100/105/4
f 82/73/5 100/105/5 98/106/5
f 96/103/3 81/71/3 97/107/3
f 97/107/5 82/73/5 98/106/5
f 63/77/5 90/108/5 67/109/5
f 70/110/3 89/111/3 63/77/3
f 90/108/5 65/84/5 67/109/5
f 92/112/4 75/113/4 65/84/4
f 94/114/1 71/90/1 78/115/1
f 93/116/3 70/110/3 71/90/3
f 76/97/1 94/114/1 78/115/1
f 75/113/4 95/117/4 76/97/4
f 89/111/5 98/106/5 90/108/5
f 88/118/3 97/107/3 89/111/3
f 98/106/5 92/112/5 90/108/5
f 100/105/4 91/119/4 92/112/4
f 93/116/3 157/120/3 101/104/3
f 101/104/3 88/118/3 93/116/3
f 103/100/4 156/121/4 95/117/4
f 91/119/4 103/100/4 95/117/4
f 95/117/2 155/122/2 94/114/2
f 94/114/2 154/123/2 93/116/2
f 102/102/6 159/124/6 103/100/6
f 101/104/6 158/125/6 102/102/6
f 79/85/6 161/126/6 77/94/6
f 86/101/2 163/127/2 85/89/2
f 87/96/2 164/128/2 86/101/2
f 77/94/4 165/129/4 87/96/4
f 107/130/6 106/131/6 104/80/6
f 106/131/6 110/132/6 105/133/6
f 112/134/6 107/130/6 108/86/6
f 110/132/6 112/134/6 111/93/6
f 66/82/4 110/132/4 74/92/4
f 77/94/1 112/134/1 79/85/1
f 72/87/3 107/130/3 69/79/3
f 68/72/5 105/133/5 66/82/5
f 118/135/1 131/136/1 132/137/1
f 114/138/3 130/139/3 131/136/3
f 113/140/2 123/141/2 117/142/2
f 166/143/3 119/144/3 114/138/3
f 134/145/1 118/135/1 132/137/1
f 133/146/4 116/147/4 134/145/4
f 123/141/2 115/148/2 117/142/2
f 170/149/5 129/150/5 122/151/5
f 162/88/6 122/151/6 129/150/6
f 130/139/3 122/151/3 135/152/3
f 123/141/2 121/153/2 128/154/2
f 173/155/4 124/156/4 127/157/4
f 160/95/3 135/152/3 122/151/3
f 127/157/4 133/146/4 137/158/4
f 126/159/2 123/141/2 128/154/2
f 168/160/1 114/138/1 118/135/1
f 137/158/4 149/161/4 153/162/4
f 136/163/5 153/162/5 152/164/5
f 146/165/3 135/152/3 151/166/3
f 151/166/5 136/163/5 152/164/5
f 149/161/4 134/145/4 150/167/4
f 150/167/1 132/137/1 148/168/1
f 131/136/3 146/165/3 147/169/3
f 132/137/1 147/169/1 148/168/1
f 140/170/1 113/140/1 117/171/1
f 139/172/3 120/173/3 113/140/3
f 115/148/1 140/170/1 117/171/1
f 125/174/4 142/175/4 115/148/4
f 121/153/5 144/176/5 128/177/5
f 120/173/3 143/178/3 121/153/3
f 144/176/5 126/159/5 128/177/5
f 145/179/4 125/174/4 126/159/4
f 148/168/1 139/172/1 140/170/1
f 147/169/3 138/180/3 139/172/3
f 142/175/1 148/168/1 140/170/1
f 141/181/4 150/167/4 142/175/4
f 157/120/3 143/178/3 151/166/3
f 138/180/3 151/166/3 143/178/3
f 156/121/4 153/162/4 145/179/4
f 153/162/4 141/181/4 145/179/4
f 154/123/5 158/125/5 155/122/5
f 158/125/5 156/121/5 155/122/5
f 155/122/2 145/179/2 144/176/2
f 154/123/2 144/176/2 143/178/2
f 159/124/6 152/164/6 153/162/6
f 158/125/6 151/166/6 152/164/6
f 163/127/5 162/182/5 164/128/5
f 162/182/5 165/129/5 164/128/5
f 161/126/6 129/150/6 127/157/6
f 163/127/2 136/163/2 135/152/2
f 164/128/2 137/158/2 136/163/2
f 165/129/4 127/157/4 137/158/4
f 168/183/6 169/184/6 166/143/6
f 172/185/6 168/183/6 167/186/6
f 169/184/6 174/187/6 170/149/6
f 174/187/6 172/185/6 173/155/6
f 172/185/4 116/147/4 124/156/4
f 174/187/5 127/157/5 129/150/5
f 169/184/3 122/151/3 119/144/3
f 167/186/1 118/135/1 116/147/1
f 12/1/1 10/6/1 1/2/1
f 1/2/2 5/7/2 7/4/2
f 10/6/3 19/188/3 5/7/3
f 2/8/1 13/10/1 12/1/1
f 7/4/2 9/9/2 2/8/2
f 9/9/4 26/189/4 13/10/4
f 4/11/5 16/15/5 20/12/5
f 7/4/2 5/7/2 4/11/2
f 5/7/3 19/188/3 16/15/3
f 20/12/5 21/17/5 6/16/5
f 6/16/2 9/9/2 7/4/2
f 21/17/4 26/189/4 9/9/4
f 11/18/1 10/6/1 12/1/1
f 23/20/6 18/22/6 11/18/6
f 18/22/3 19/188/3 10/6/3
f 12/1/1 13/10/1 14/23/1
f 14/23/6 25/24/6 23/20/6
f 13/10/4 26/189/4 25/24/4
f 20/12/5 16/15/5 17/25/5
f 17/25/6 18/22/6 23/20/6
f 16/15/3 19/188/3 18/22/3
f 22/28/5 21/17/5 20/12/5
f 23/20/6 25/24/6 22/28/6
f 25/24/4 26/189/4 21/17/4
f 32/29/1 28/32/1 27/30/1
f 28/32/3 33/37/3 34/33/3
f 27/30/2 34/33/2 37/34/2
f 32/36/6 38/190/6 33/37/6
f 29/38/1 30/40/1 32/29/1
f 40/39/4 39/41/4 30/40/4
f 37/34/2 40/39/2 29/38/2
f 39/41/6 38/190/6 32/36/6
f 35/42/5 36/45/5 44/43/5
f 34/33/3 33/37/3 36/45/3
f 37/34/2 34/33/2 35/42/2
f 33/37/6 38/190/6 44/47/6
f 44/43/5 42/49/5 41/48/5
f 42/49/4 39/41/4 40/39/4
f 41/48/2 40/39/2 37/34/2
f 44/47/6 38/190/6 39/41/6
f 45/50/5 46/54/5 50/51/5
f 52/53/3 51/57/3 46/54/3
f 55/55/2 52/53/2 45/50/2
f 51/57/6 56/191/6 50/58/6
f 50/51/5 48/60/5 47/59/5
f 48/60/4 57/62/4 58/61/4
f 47/59/2 58/61/2 55/55/2
f 50/58/6 56/191/6 57/62/6
f 62/63/1 54/66/1 53/64/1
f 54/66/3 51/57/3 52/53/3
f 53/64/2 52/53/2 55/55/2
f 62/68/6 56/191/6 51/57/6
f 59/69/1 60/70/1 62/63/1
f 58/61/4 57/62/4 60/70/4
f 55/55/2 58/61/2 59/69/2
f 57/62/6 56/191/6 62/68/6
f 81/71/5 64/75/5 68/72/5
f 80/74/3 69/79/3 64/75/3
f 73/76/2 70/110/2 63/77/2
f 69/79/3 107/130/3 104/80/3
f 68/72/5 66/82/5 84/81/5
f 66/82/4 74/92/4 83/83/4
f 65/84/2 75/113/2 73/76/2
f 79/85/1 112/134/1 108/86/1
f 72/87/6 160/95/6 162/88/6
f 72/87/3 69/79/3 80/74/3
f 71/90/2 70/110/2 73/76/2
f 74/92/4 110/132/4 111/93/4
f 85/89/3 163/127/3 160/95/3
f 83/83/4 74/92/4 77/94/4
f 73/76/2 75/113/2 76/97/2
f 64/75/5 104/80/5 106/98/5
f 99/99/4 83/83/4 87/96/4
f 103/100/1 87/96/1 86/101/1
f 85/89/3 80/74/3 96/103/3
f 86/101/1 85/89/1 101/104/1
f 84/81/4 83/83/4 99/99/4
f 82/73/5 84/81/5 100/105/5
f 96/103/3 80/74/3 81/71/3
f 97/107/5 81/71/5 82/73/5
f 63/77/5 89/111/5 90/108/5
f 70/110/3 88/118/3 89/111/3
f 90/108/5 92/112/5 65/84/5
f 92/112/4 91/119/4 75/113/4
f 94/114/1 93/116/1 71/90/1
f 93/116/3 88/118/3 70/110/3
f 76/97/1 95/117/1 94/114/1
f 75/113/4 91/119/4 95/117/4
f 89/111/5 97/107/5 98/106/5
f 88/118/3 96/103/3 97/107/3
f 98/106/5 100/105/5 92/112/5
f 100/105/4 99/99/4 91/119/4
f 93/116/3 154/123/3 157/120/3
f 101/104/3 96/103/3 88/118/3
f 103/100/4 159/124/4 156/121/4
f 91/119/4 99/99/4 103/100/4
f 95/117/2 156/121/2 155/122/2
f 94/114/2 155/122/2 154/123/2
f 102/102/6 158/125/6 159/124/6
f 101/104/6 157/120/6 158/125/6
f 79/85/6 162/88/6 161/126/6
f 86/101/2 164/128/2 163/127/2
f 87/96/2 165/129/2 164/128/2
f 77/94/4 161/126/4 165/129/4
f 107/130/6 109/192/6 106/131/6
f 106/131/6 109/192/6 110/132/6
f 112/134/6 109/192/6 107/130/6
f 110/132/6 109/192/6 112/134/6
f 66/82/4 105/133/4 110/132/4
f 77/94/1 111/93/1 112/134/1
f 72/87/3 108/86/3 107/130/3
f 68/72/5 106/98/5 105/133/5
f 118/135/1 114/138/1 131/136/1
f 114/138/3 119/144/3 130/139/3
f 113/140/2 120/173/2 123/141/2
f 166/143/3 169/184/3 119/144/3
f 134/145/1 116/147/1 118/135/1
f 133/146/4 124/156/4 116/147/4
f 123/141/2 125/174/2 115/148/2
f 170/149/5 174/187/5 129/150/5
f 162/88/6 160/95/6 122/151/6
f 130/139/3 119/144/3 122/151/3
f 123/141/2 120/173/2 121/153/2
f 173/155/4 172/185/4 124/156/4
f 160/95/3 163/127/3 135/152/3
f 127/157/4 124/156/4 133/146/4
f 126/159/2 125/174/2 123/141/2
f 168/160/1 166/143/1 114/138/1
f 137/158/4 133/146/4 149/161/4
f 136/163/5 137/158/5 153/162/5
f 146/165/3 130/139/3 135/152/3
f 151/166/5 135/152/5 136/163/5
f 149/161/4 133/146/4 134/145/4
f 150/167/1 134/145/1 132/137/1
f 131/136/3 130/139/3 146/165/3
f 132/137/1 131/136/1 147/169/1
f 140/170/1 139/172/1 113/140/1
f 139/172/3 138/180/3 120/173/3
f 115/148/1 142/175/1 140/170/1
f 125/174/4 141/181/4 142/175/4
f 121/153/5 143/178/5 144/176/5
f 120/173/3 138/180/3 143/178/3
f 144/176/5 145/179/5 126/159/5
f 145/179/4 141/181/4 125/174/4
f 148/168/1 147/169/1 139/172/1
f 147/169/3 146/165/3 138/180/3
f 142/175/1 150/167/1 148/168/1
f 141/181/4 149/161/4 150/167/4
f 157/120/3 154/123/3 143/178/3
f 138/180/3 146/165/3 151/166/3
f 156/121/4 159/124/4 153/162/4
f 153/162/4 149/161/4 141/181/4
f 154/123/5 157/120/5 158/125/5
f 158/125/5 159/124/5 156/121/5
f 155/122/2 156/121/2 145/179/2
f 154/123/2 155/122/2 144/176/2
f 159/124/6 158/125/6 152/164/6
f 158/125/6 157/120/6 151/166/6
f 163/127/5 160/95/5 162/182/5
f 162/182/5 161/126/5 165/129/5
f 161/126/6 162/88/6 129/150/6
f 163/127/2 164/128/2 136/163/2
f 164/128/2 165/129/2 137/158/2
f 165/129/4 161/126/4 127/157/4
f 168/183/6 171/193/6 169/184/6
f 172/185/6 171/193/6 168/183/6
f 169/184/6 171/193/6 174/187/6
f 174/187/6 171/193/6 172/185/6
f 172/185/4 167/186/4 116/147/4
f 174/187/5 173/155/5 127/157/5
f 169/184/3 170/149/3 122/151/3
f 167/186/1 168/160/1 118/135/1
